<?xml version="1.0" encoding="UTF-8" standalone="no"?>
<!-- Created with Inkscape (http://www.inkscape.org/) -->

<svg
   width="512"
   height="512"
   viewBox="0 0 135.46667 135.46667"
   version="1.1"
   id="svg1"
   xml:space="preserve"
   inkscape:version="1.4.2 (ebf0e940, 2025-05-08)"
   sodipodi:docname="icon.svg"
   inkscape:export-filename="icon.png"
   inkscape:export-xdpi="250"
   inkscape:export-ydpi="250"
   xmlns:inkscape="http://www.inkscape.org/namespaces/inkscape"
   xmlns:sodipodi="http://sodipodi.sourceforge.net/DTD/sodipodi-0.dtd"
   xmlns="http://www.w3.org/2000/svg"
   xmlns:svg="http://www.w3.org/2000/svg"><sodipodi:namedview
     id="namedview1"
     pagecolor="#ffffff"
     bordercolor="#666666"
     borderopacity="1.0"
     inkscape:showpageshadow="2"
     inkscape:pageopacity="0.0"
     inkscape:pagecheckerboard="true"
     inkscape:deskcolor="#d1d1d1"
     inkscape:document-units="mm"
     inkscape:zoom="0.63559753"
     inkscape:cx="36.186421"
     inkscape:cy="174.63882"
     inkscape:window-width="3008"
     inkscape:window-height="1639"
     inkscape:window-x="1512"
     inkscape:window-y="25"
     inkscape:window-maximized="1"
     inkscape:current-layer="layer1" /><defs
     id="defs1" /><g
     inkscape:label="Layer 1"
     inkscape:groupmode="layer"
     id="layer1"
     transform="translate(-20,20.604551)"><path
       d="m 87.73337,-18.656113 c 1.188579,0 2.377128,0.258372 3.46233,0.749318 l 48.65396,20.6449796 c 5.68447,2.4029828 9.92201,8.0099464 9.89616,14.7796384 -0.12915,25.631819 -10.67134,72.528762 -55.191092,93.845517 -4.315036,2.06712 -9.327696,2.06712 -13.642762,0 C 36.392154,90.046585 25.850031,43.149642 25.720861,17.517823 25.693961,10.748131 29.932576,5.1411674 35.617009,2.7381846 L 84.296808,-17.906795 c 1.059417,-0.490931 2.247967,-0.749318 3.436562,-0.749318 z"
       id="path1"
       style="fill:#3689d5;fill-opacity:1;stroke-width:0.264583" /><path
       d="m 87.73337,-0.17919587 c 0.854769,0 1.709462,0.18579437 2.489892,0.53885757 L 125.21186,15.206113 c 4.08784,1.728062 7.13521,5.760193 7.11661,10.628494 -0.0926,18.432657 -7.67407,52.157716 -39.689641,67.487235 -3.103057,1.48652 -6.707877,1.48652 -9.810919,0 C 50.812266,77.992323 43.231108,44.267264 43.138237,25.834607 43.121546,20.966306 46.166998,16.934175 50.254856,15.206113 L 85.262033,0.3596617 c 0.761859,-0.353048 1.616598,-0.53885757 2.471337,-0.53885757 z"
       id="path1-9"
       style="fill:#ebebeb;fill-opacity:0.97331;stroke-width:0.264583" /><path
       d="m 59.518911,14.008021 c -3.594628,0 -6.511023,2.916394 -6.511023,6.511021 0,2.048261 0.963093,3.974437 2.604411,5.208819 l 29.516638,22.137476 c 1.546356,1.152995 3.66245,1.152995 5.208814,0 L 119.85438,25.727861 c 1.64131,-1.234382 2.6044,-3.160558 2.6044,-5.208819 0,-3.594627 -2.91639,-6.511021 -6.51102,-6.511021 z m -6.511023,15.192387 v 28.214431 c 0,4.78831 3.893046,8.681356 8.681364,8.681356 h 52.088158 c 4.78831,0 8.68137,-3.893046 8.68137,-8.681356 V 29.200408 L 92.942162,51.337885 c -3.092737,2.31955 -7.324899,2.31955 -10.417628,0 z"
       id="path1-4"
       style="fill:#053159;fill-opacity:1;stroke-width:0.264584" /></g></svg>
